<svg xmlns="http://www.w3.org/2000/svg" xmlns:xlink="http://www.w3.org/1999/xlink" width="20.971" height="15.968" viewBox="0 0 20.971 15.968">
  <defs>
    <clipPath id="clip-path">
      <rect id="Rectangle_1387" data-name="Rectangle 1387" width="20.971" height="15.968" fill="#fff"/>
    </clipPath>
  </defs>
  <g id="Group_2422" data-name="Group 2422" clip-path="url(#clip-path)">
    <path id="Path_27995" data-name="Path 27995" d="M20.971,127.216v2.2a2.349,2.349,0,0,1-2.346,2.342H2.342A2.349,2.349,0,0,1,0,129.412v-2.2H0a1.111,1.111,0,0,1,2.22,0h0V129a.532.532,0,0,0,.528.532H18.215a.532.532,0,0,0,.528-.532v-1.782h0a1.111,1.111,0,0,1,2.22,0Z" transform="translate(0 -115.786)" fill="#fff" fill-rule="evenodd"/>
    <path id="Path_27996" data-name="Path 27996" d="M115.133,0h0a1.117,1.117,0,0,1,1.116,1.112V9a1.114,1.114,0,0,1-2.228,0V1.111A1.116,1.116,0,0,1,115.133,0" transform="translate(-104.649 0.001)" fill="#fff" fill-rule="evenodd"/>
    <path id="Path_27997" data-name="Path 27997" d="M72.693,70.142h0a1.114,1.114,0,0,1,0,1.573l-4.226,4.227a.188.188,0,0,1-.028.028,1.1,1.1,0,0,1-.761.323.051.051,0,0,0-.024,0h0a.051.051,0,0,0-.024,0,1.1,1.1,0,0,1-.761-.323.2.2,0,0,1-.028-.028q-2.117-2.111-4.227-4.227a1.112,1.112,0,0,1,1.573-1.573l3.466,3.466q1.739-1.733,3.469-3.466a1.114,1.114,0,0,1,1.573,0" transform="translate(-57.167 -64.078)" fill="#fff" fill-rule="evenodd"/>
  </g>
</svg>
