<svg xmlns="http://www.w3.org/2000/svg" xmlns:xlink="http://www.w3.org/1999/xlink" width="21" height="15.697" viewBox="0 0 21 15.697"><defs><clipPath id="a"><rect width="21" height="15.697" fill="none"/></clipPath></defs><g clip-path="url(#a)"><path d="M8.082,15.508.21,7.945a.681.681,0,0,1-.02-.963L2.311,4.766a.682.682,0,0,1,.963-.022l4.672,4.5a.682.682,0,0,0,.963-.02L17.611.21a.682.682,0,0,1,.963-.02L20.79,2.312a.681.681,0,0,1,.021.963L9.045,15.487a.682.682,0,0,1-.963.021" transform="translate(0 0)" fill="#19394c"/></g></svg>