<svg xmlns="http://www.w3.org/2000/svg" xmlns:xlink="http://www.w3.org/1999/xlink" width="12.009" height="12" viewBox="0 0 12.009 12"><defs><clipPath id="a"><rect width="12.009" height="12" transform="translate(0 0)" fill="#fff"/></clipPath></defs><g transform="translate(0 0)" clip-path="url(#a)"><path d="M10.2,15.463a.619.619,0,0,0-.619.619V20.86H1.239V12.522H6.016a.619.619,0,1,0,0-1.239H.619A.619.619,0,0,0,0,11.9v9.577a.62.62,0,0,0,.619.619H10.2a.619.619,0,0,0,.619-.619v-5.4a.619.619,0,0,0-.619-.619" transform="translate(0 -10.098)" fill="#fff"/><path d="M52.864.617c0-.019,0-.038,0-.057s0-.011,0-.016,0-.029-.007-.044l0-.013c0-.015-.007-.031-.012-.046l0-.009C52.829.416,52.823.4,52.817.384l0-.006C52.807.361,52.8.345,52.791.329l0-.006C52.779.308,52.77.292,52.76.277L52.751.265c-.009-.012-.017-.025-.027-.036a.629.629,0,0,0-.087-.087L52.6.113,52.588.1c-.015-.01-.031-.019-.047-.028l-.005,0C52.52.065,52.5.057,52.486.05l0,0L52.432.03l-.008,0L52.377.016l-.012,0L52.32.006l-.015,0-.06,0h-3.42a.619.619,0,0,0,0,1.239h1.925l-4.92,4.92a.619.619,0,1,0,.876.876l4.92-4.92V4.04a.619.619,0,0,0,1.239,0V.617" transform="translate(-40.855 -0.001)" fill="#fff"/></g></svg>