<svg xmlns="http://www.w3.org/2000/svg" xmlns:xlink="http://www.w3.org/1999/xlink" width="27" height="27" viewBox="0 0 27 27"><defs><clipPath id="a"><rect width="27" height="27" transform="translate(0 0)" fill="none"/></clipPath></defs><g transform="translate(0 0.001)"><g transform="translate(0 -0.001)" clip-path="url(#a)"><path d="M27,13.5A13.5,13.5,0,1,1,13.5,0,13.5,13.5,0,0,1,27,13.5" transform="translate(0 0.001)" fill="#a1c3e6"/><path d="M51.485,83.265a1.328,1.328,0,0,1-.945-.392l-4.148-4.148a1.337,1.337,0,1,1,1.891-1.89l3.2,3.2L61.2,70.323a1.337,1.337,0,1,1,1.891,1.891l-10.66,10.66a1.326,1.326,0,0,1-.945.392" transform="translate(-41.242 -62.696)" fill="#fff"/></g></g></svg>