<svg xmlns="http://www.w3.org/2000/svg" width="185.3" height="29.095" viewBox="0 0 185.3 29.095"><g transform="translate(-4.43 -2.75)"><g transform="translate(41.367 7.393)"><path d="M75.891,26.986a1.573,1.573,0,0,1,.342.954,1.188,1.188,0,0,1-1.244,1.27,1.279,1.279,0,0,1-1.138-.612l-4.988-6.363h-5.33v5.626a1.192,1.192,0,0,1-1.244,1.355,1.207,1.207,0,0,1-1.27-1.355V12.635A1.265,1.265,0,0,1,62.4,11.28h7.823c3.816,0,5.863,1.856,5.863,5.33,0,3-1.461,4.856-4.27,5.33v.053Zm-5.915-7.054c2.283,0,3.527-1.086,3.527-3.158,0-2.092-1.244-3.185-3.527-3.185H63.527v6.336h6.448Z" transform="translate(-61.02 -10.332)" fill="#19394c"/><path d="M92.288,18.54A6.39,6.39,0,0,1,99.052,25.2a6.752,6.752,0,0,1-13.5,0A6.373,6.373,0,0,1,92.288,18.54Zm0,11.166a4.232,4.232,0,0,0,4.4-4.507,4.39,4.39,0,1,0-8.778,0A4.225,4.225,0,0,0,92.288,29.706Z" transform="translate(-69.41 -12.815)" fill="#19394c"/><path d="M122.263,22.223c0,4.007-2.52,6.659-6.284,6.659a5.761,5.761,0,0,1-4.8-2.119h-.053v.717a1.1,1.1,0,0,1-1.138,1.244,1.121,1.121,0,0,1-1.165-1.244V11.11a1.13,1.13,0,0,1,1.165-1.27,1.111,1.111,0,0,1,1.138,1.27v6.58h.053a5.8,5.8,0,0,1,4.8-2.119C119.743,15.565,122.263,18.243,122.263,22.223Zm-2.362,0a4.219,4.219,0,0,0-4.349-4.507,4.266,4.266,0,0,0-4.428,4.507,4.266,4.266,0,0,0,4.428,4.507A4.219,4.219,0,0,0,119.9,22.223Z" transform="translate(-77.368 -9.84)" fill="#19394c"/><path d="M138.508,18.54a6.39,6.39,0,0,1,6.764,6.659,6.752,6.752,0,0,1-13.5,0A6.369,6.369,0,0,1,138.508,18.54Zm0,11.166a4.232,4.232,0,0,0,4.4-4.507,4.39,4.39,0,1,0-8.778,0A4.225,4.225,0,0,0,138.508,29.706Z" transform="translate(-85.217 -12.815)" fill="#19394c"/><path d="M164.226,11.28a1.1,1.1,0,0,1,1.244,1.138,1.121,1.121,0,0,1-1.244,1.165H158.39V27.855a1.189,1.189,0,0,1-1.244,1.355,1.212,1.212,0,0,1-1.276-1.355V13.59h-5.836a1.121,1.121,0,0,1-1.244-1.165,1.106,1.106,0,0,1,1.244-1.138h14.193Z" transform="translate(-91.038 -10.332)" fill="#19394c"/><path d="M189.861,19.156V27.7a1.263,1.263,0,1,1-2.52,0V23.479H176.2v4.244a1.234,1.234,0,1,1-2.461,0V19.156c0-5.409,2.915-8.356,8.06-8.356C186.972,10.8,189.861,13.741,189.861,19.156Zm-2.514-.105c0-3.928-1.961-5.942-5.573-5.942s-5.573,2.013-5.573,5.942V21.17h11.14V19.051Z" transform="translate(-99.572 -10.168)" fill="#19394c"/><path d="M217.947,12.369V27.621a1.351,1.351,0,0,1-1.382,1.513,1.743,1.743,0,0,1-1.434-.665L204.55,15.179H204.5V27.806a1.177,1.177,0,0,1-1.217,1.329,1.2,1.2,0,0,1-1.25-1.329V12.58a1.406,1.406,0,0,1,1.408-1.54,1.7,1.7,0,0,1,1.461.665L215.427,24.97h.053v-12.6A1.174,1.174,0,0,1,216.7,11.04,1.2,1.2,0,0,1,217.947,12.369Z" transform="translate(-109.247 -10.25)" fill="#19394c"/><path d="M247.037,21.166c0,4.777-3.553,8.034-8.751,8.034A8.773,8.773,0,0,1,229.08,20a9.386,9.386,0,0,1,16.338-6.126,1.379,1.379,0,0,1,.289.849,1.161,1.161,0,0,1-1.191,1.217,1.23,1.23,0,0,1-.954-.428,6.447,6.447,0,0,0-5.251-2.415c-3.955,0-6.659,2.81-6.659,6.9s2.7,6.9,6.659,6.9c3.474,0,5.863-1.961,6.257-4.988H240.43a1.155,1.155,0,1,1,0-2.3h5.251a1.245,1.245,0,0,1,1.355,1.355Z" transform="translate(-118.498 -10.165)" fill="#19394c"/><path d="M267.712,10.8a8.759,8.759,0,0,1,9.205,9.205,8.755,8.755,0,0,1-9.205,9.205c-5.468,0-9.232-3.737-9.232-9.205S262.25,10.8,267.712,10.8Zm0,16.1c3.928,0,6.633-2.81,6.633-6.9s-2.7-6.9-6.633-6.9c-3.955,0-6.659,2.81-6.659,6.9S263.764,26.9,267.712,26.9Z" transform="translate(-128.554 -10.168)" fill="#19394c"/></g><g transform="translate(4.43 2.75)"><path d="M37.246,24.495V18.889h-5.6V15.54l-5.606-.02V26.232a4.427,4.427,0,0,1-4.422,4.422H13.506L7.9,36.26H21.612A10.025,10.025,0,0,0,31.64,26.232V24.488Z" transform="translate(-5.617 -7.164)" fill="#e60012"/><path d="M26.512,8.346H14.458a4.423,4.423,0,0,0-4.422,4.414V24.216l-5.606,5.6V12.76A10.016,10.016,0,0,1,14.458,2.75h17.66ZM17.445,14.5a2.8,2.8,0,1,0,2.8,2.8A2.8,2.8,0,0,0,17.445,14.5Z" transform="translate(-4.43 -2.75)" fill="#19394c"/></g></g></svg>