<svg xmlns="http://www.w3.org/2000/svg" xmlns:xlink="http://www.w3.org/1999/xlink" width="200" height="31.401" viewBox="0 0 200 31.401"><defs><clipPath id="a"><rect width="200" height="31.401" fill="none"/></clipPath></defs><g transform="translate(0 0)"><g transform="translate(0 0)" clip-path="url(#a)"><path d="M49.32,21.938a1.692,1.692,0,0,1,.371,1.029,1.283,1.283,0,0,1-1.344,1.372,1.4,1.4,0,0,1-1.229-.657l-5.373-6.86H36v6.06a1.28,1.28,0,0,1-1.343,1.457,1.3,1.3,0,0,1-1.372-1.457V6.475a1.359,1.359,0,0,1,1.486-1.457H43.2c4.116,0,6.317,2,6.317,5.745,0,3.23-1.572,5.231-4.6,5.744v.058Zm-6.374-7.6c2.459,0,3.8-1.171,3.8-3.4,0-2.257-1.343-3.43-3.8-3.43H36v6.831Z" transform="translate(6.831 1.03)" fill="#fff"/><path d="M54.987,9.287a6.887,6.887,0,0,1,7.288,7.175,6.887,6.887,0,0,1-7.288,7.173,6.864,6.864,0,0,1-7.26-7.173,6.865,6.865,0,0,1,7.26-7.175m0,12.033a4.561,4.561,0,0,0,4.745-4.858,4.732,4.732,0,1,0-9.461,0,4.554,4.554,0,0,0,4.716,4.858" transform="translate(9.794 1.906)" fill="#fff"/><path d="M75.9,17.512c0,4.316-2.717,7.173-6.775,7.173A6.177,6.177,0,0,1,63.954,22.4H63.9v.771a1.189,1.189,0,0,1-1.228,1.344A1.21,1.21,0,0,1,61.41,23.17V5.536a1.219,1.219,0,0,1,1.257-1.372c.773,0,1.228.515,1.228,1.372v7.089h.059a6.257,6.257,0,0,1,5.173-2.286c4.058,0,6.775,2.887,6.775,7.173m-2.544,0a4.548,4.548,0,0,0-4.687-4.858A4.6,4.6,0,0,0,63.9,17.512,4.6,4.6,0,0,0,68.67,22.37a4.548,4.548,0,0,0,4.687-4.858" transform="translate(12.602 0.854)" fill="#fff"/><path d="M82.176,9.287a6.887,6.887,0,0,1,7.288,7.175,7.275,7.275,0,0,1-14.548,0,6.865,6.865,0,0,1,7.26-7.175m0,12.033a4.561,4.561,0,0,0,4.745-4.858,4.732,4.732,0,1,0-9.461,0,4.554,4.554,0,0,0,4.716,4.858" transform="translate(15.374 1.906)" fill="#fff"/><path d="M101.56,5.018A1.189,1.189,0,0,1,102.9,6.247,1.209,1.209,0,0,1,101.56,7.5H95.272V22.882a1.28,1.28,0,0,1-1.343,1.457,1.3,1.3,0,0,1-1.372-1.457V7.5H86.27a1.21,1.21,0,0,1-1.344-1.257A1.19,1.19,0,0,1,86.27,5.018Z" transform="translate(17.428 1.03)" fill="#fff"/><path d="M116.983,13.737v9.2a1.361,1.361,0,1,1-2.715,0V18.4h-12v4.574a1.333,1.333,0,1,1-2.659,0V13.737c0-5.831,3.144-9,8.688-9,5.574,0,8.69,3.172,8.69,9m-2.715-.114c0-4.23-2.115-6.4-6-6.4s-6,2.172-6,6.4v2.286h12Z" transform="translate(20.441 0.971)" fill="#fff"/><path d="M133.4,6.3V22.739a1.453,1.453,0,0,1-1.486,1.629,1.879,1.879,0,0,1-1.544-.715l-11.4-14.319h-.058v13.6a1.265,1.265,0,0,1-1.314,1.429,1.286,1.286,0,0,1-1.344-1.429V6.533a1.512,1.512,0,0,1,1.515-1.658,1.832,1.832,0,0,1,1.572.715l11.347,14.291h.057V6.3a1.265,1.265,0,0,1,1.315-1.429A1.286,1.286,0,0,1,133.4,6.3" transform="translate(23.857 1)" fill="#fff"/><path d="M151.514,15.909c0,5.145-3.829,8.661-9.432,8.661-5.859,0-9.917-4.03-9.917-9.918s4.058-9.918,9.917-9.918a9.544,9.544,0,0,1,7.689,3.314,1.479,1.479,0,0,1,.313.915,1.253,1.253,0,0,1-1.286,1.315,1.337,1.337,0,0,1-1.028-.457,6.96,6.96,0,0,0-5.66-2.6c-4.259,0-7.175,3.03-7.175,7.431s2.915,7.43,7.175,7.43c3.745,0,6.317-2.114,6.746-5.373H144.4a1.247,1.247,0,1,1,0-2.486h5.66a1.337,1.337,0,0,1,1.457,1.457Z" transform="translate(27.123 0.971)" fill="#fff"/><path d="M159.41,4.733c5.888,0,9.918,4.03,9.918,9.918s-4.03,9.918-9.918,9.918-9.947-4.03-9.947-9.918,4.059-9.918,9.947-9.918m0,17.349c4.23,0,7.145-3.03,7.145-7.431s-2.914-7.431-7.145-7.431c-4.259,0-7.175,3.03-7.175,7.431s2.915,7.431,7.175,7.431" transform="translate(30.673 0.971)" fill="#fff"/><path d="M33.666,17.178V11.141H27.629V7.53l-6.038-.019V19.056a4.772,4.772,0,0,1-4.767,4.767H8.084L2.046,29.859H16.824a10.8,10.8,0,0,0,10.8-10.8V17.178Z" transform="translate(0.42 1.541)" fill="#dc000c"/><path d="M23.8,6.037H10.8A4.772,4.772,0,0,0,6.038,10.8V23.167L0,29.2V10.8A10.8,10.8,0,0,1,10.8,0H29.837Zm-9.774,6.644A3.018,3.018,0,1,0,17.044,15.7a3.018,3.018,0,0,0-3.019-3.019" transform="translate(0 0)" fill="#fff"/></g></g></svg>